<svg width="150" height="48" viewBox="0 0 75 24" fill="none" xmlns="http://www.w3.org/2000/svg">
<path fill-rule="evenodd" clip-rule="evenodd" d="M19.3224 11.0693V6.02341C19.3224 5.18183 20.0418 4.5013 20.905 4.5013C21.7868 4.5013 22.488 5.18183 22.488 6.02341V11.0693C22.488 11.9109 21.7505 12.5914 20.905 12.5914C20.0418 12.5914 19.3224 11.9109 19.3224 11.0693ZM30.391 8.64207C30.391 7.21647 30.9607 6.03461 31.8917 5.2661C32.7463 4.53436 33.9237 4.14076 35.1775 4.14076C36.4308 4.14076 37.6088 4.53436 38.4634 5.2661C39.3939 6.03461 39.9641 7.21647 39.9641 8.64207C39.9641 10.0671 39.3939 11.249 38.4634 12.0181C37.6082 12.7493 36.4308 13.1434 35.1775 13.1434C33.9237 13.1434 32.7458 12.7493 31.8917 12.0181C30.9607 11.249 30.391 10.0671 30.391 8.64207ZM33.4299 8.67781C33.4299 9.30181 33.6389 9.85007 33.9804 10.2282C34.285 10.5498 34.7024 10.7386 35.1775 10.7386C35.6521 10.7386 36.0701 10.5498 36.3742 10.2282C36.7162 9.85007 36.9247 9.30181 36.9247 8.67781C36.9247 8.05381 36.7162 7.50554 36.3742 7.12741C36.2208 6.96442 36.0352 6.83493 35.8292 6.74709C35.6231 6.65925 35.4011 6.61493 35.177 6.61701C34.7024 6.61701 34.2845 6.80634 33.9809 7.12741C33.6389 7.50607 33.4304 8.05381 33.4304 8.67781H33.4299ZM43.236 5.35994L44.5658 9.91727H44.6609L45.9901 5.2469C46.1611 4.66556 46.6362 4.14023 47.4716 4.14023C48.4593 4.14023 49.0103 4.74076 49.0103 5.52847C49.0103 5.82821 48.8585 6.33487 48.6875 6.76581L46.9398 11.2298C46.4652 12.4495 45.7624 13.1434 44.4706 13.1434C43.1414 13.1434 42.4766 12.4682 42.0394 11.2303L40.4061 6.74767C40.2164 6.24101 40.1212 5.86607 40.1212 5.60314C40.1212 4.7781 40.7289 4.14023 41.8117 4.14023C42.7422 4.14023 43.0843 4.85329 43.236 5.35941V5.35994ZM56.4611 10.2735C57.126 10.2735 57.6011 10.8175 57.6011 11.4735C57.6011 12.0927 57.1831 12.5055 56.3473 12.8058C55.5114 13.1061 54.714 13.1434 53.9919 13.1434C52.5104 13.1434 51.333 12.7119 50.5164 11.9434C49.6425 11.1365 49.1674 9.93594 49.1674 8.52954C49.1674 7.19781 49.6997 6.09114 50.4971 5.30289C51.2571 4.57223 52.3394 4.14023 53.7071 4.14023C55.1506 4.14023 56.1762 4.59036 56.8603 5.26556C57.7336 6.12847 57.9613 7.12261 57.9613 7.91087C57.9613 8.84794 57.4108 9.42981 56.4803 9.42981H52.3966C52.4917 9.84207 52.6627 10.1423 52.9097 10.3674C53.2132 10.649 53.6504 10.7989 54.2009 10.7989C54.6947 10.7989 55.0368 10.7242 55.3216 10.6298C55.7775 10.4799 56.0624 10.2735 56.4611 10.2735ZM52.3966 7.63781H54.9796C54.9422 7.33541 54.885 7.10874 54.676 6.86287C54.4671 6.61754 54.1442 6.48474 53.7263 6.48474C53.3463 6.48474 52.9663 6.59834 52.7573 6.82501C52.5676 7.03301 52.4538 7.29754 52.3966 7.63781ZM15.0254 16.025C15.0254 16.6869 14.5124 17.2165 13.8475 17.2165C13.4108 17.2165 13.1067 17.1215 12.8411 17.0271C12.5942 16.9327 12.3852 16.8383 12.0624 16.8383C11.7583 16.8383 11.4734 16.9327 11.4734 17.1973C11.4734 17.4618 11.7583 17.5946 12.1383 17.7647C12.6514 17.9727 13.1826 18.105 13.8095 18.4261C14.8544 18.9557 15.1965 19.8063 15.1965 20.657C15.1965 22.2639 13.7337 23.569 11.3783 23.569C10.5996 23.569 9.76426 23.5119 9.0994 23.2661C8.47249 23.0399 8.0166 22.5477 8.0166 21.905C8.0166 21.2437 8.54838 20.7141 9.21324 20.7141C9.63119 20.7141 9.954 20.9029 10.296 21.073C10.5809 21.2245 10.8465 21.3189 11.2265 21.3189C11.6445 21.3189 11.948 21.1674 11.948 20.8463C11.948 20.5818 11.7204 20.4111 11.3976 20.2597C10.8471 20.0143 10.2768 19.8821 9.68784 19.5983C8.75735 19.145 8.22557 18.3317 8.22557 17.1973C8.22557 15.5333 9.47887 14.4746 11.7776 14.4746C12.6129 14.4746 13.335 14.5503 13.8667 14.7205C14.6262 14.9855 15.0254 15.4389 15.0254 16.025ZM24.4457 16.3087C24.4457 16.9893 23.8765 17.5375 23.1924 17.5375C22.813 17.5375 22.5847 17.4053 22.2619 17.2922C21.9391 17.1594 21.6543 17.065 21.3122 17.065C20.7045 17.065 20.2486 17.273 19.9258 17.5946C19.5838 17.9535 19.3941 18.4453 19.3941 19.0122C19.3941 19.5989 19.5651 20.1087 19.8879 20.4682C20.2107 20.8271 20.6853 21.0351 21.3122 21.0351C21.6543 21.0351 22.015 20.9594 22.3186 20.865C22.6986 20.7327 22.8509 20.6005 23.2683 20.6005C23.9524 20.6005 24.4842 21.1674 24.4842 21.8485C24.4842 22.5855 23.8952 23.0202 22.9268 23.3231C22.3726 23.4906 21.7961 23.5732 21.2171 23.5685C19.5458 23.5685 18.2348 23.0581 17.3802 22.1317C16.6587 21.3567 16.26 20.2789 16.26 19.0122C16.26 17.9157 16.6021 16.9706 17.1905 16.2522C18.1023 15.1178 19.5838 14.4938 21.293 14.4938C21.5971 14.4938 22.4137 14.5125 23.2876 14.8906C24.0283 15.2122 24.4462 15.6282 24.4462 16.3087H24.4457ZM36.6206 19.0314C36.6206 17.5946 37.1908 16.4031 38.1213 15.6282C38.9764 14.8906 40.1538 14.4938 41.4077 14.4938C42.661 14.4938 43.8389 14.8906 44.6935 15.6282C45.624 16.4031 46.1937 17.5946 46.1937 19.0309C46.1937 20.4682 45.624 21.6591 44.6935 22.4346C43.8384 23.1717 42.661 23.5685 41.4077 23.5685C40.1538 23.5685 38.9759 23.1717 38.1213 22.4346C37.1914 21.6591 36.6211 20.4682 36.6211 19.0314H36.6206ZM39.66 19.0314C39.66 19.6554 39.869 20.2037 40.2105 20.5818C40.5151 20.9029 40.9325 21.0922 41.4077 21.0922C41.8823 21.0922 42.3002 20.9029 42.6043 20.5818C42.9464 20.2031 43.1548 19.6554 43.1548 19.0314C43.1548 18.4074 42.9464 17.8591 42.6043 17.481C42.4509 17.318 42.2654 17.1885 42.0593 17.1007C41.8532 17.0128 41.6312 16.9685 41.4071 16.9706C40.9325 16.9706 40.5146 17.1594 40.211 17.481C39.869 17.8591 39.6605 18.4074 39.6605 19.0314H39.66ZM47.4855 19.0314C47.4855 17.5946 48.0552 16.4031 48.9857 15.6282C49.8408 14.8906 51.0182 14.4938 52.272 14.4938C53.5253 14.4938 54.7033 14.8906 55.5579 15.6282C56.4884 16.4031 57.0581 17.5946 57.0581 19.0309C57.0581 20.4682 56.4884 21.6591 55.5579 22.4346C54.7027 23.1717 53.5253 23.5685 52.272 23.5685C51.0182 23.5685 49.8403 23.1717 48.9857 22.4346C48.0557 21.6591 47.4855 20.4682 47.4855 19.0314ZM50.5244 19.0314C50.5244 19.6554 50.7334 20.2037 51.0749 20.5818C51.3795 20.9029 51.7969 21.0922 52.272 21.0922C52.7466 21.0922 53.1646 20.9029 53.4687 20.5818C53.8107 20.2031 54.0192 19.6554 54.0192 19.0314C54.0192 18.4074 53.8107 17.8591 53.4687 17.481C53.3153 17.318 53.1297 17.1885 52.9237 17.1007C52.7176 17.0128 52.4956 16.9685 52.2715 16.9706C51.7969 16.9706 51.379 17.1594 51.0754 17.481C50.7334 17.8591 50.5249 18.4074 50.5249 19.0314H50.5244ZM58.8624 22.0938V11.8469C58.8624 11.0149 59.5652 10.3535 60.4016 10.3535C61.2557 10.3535 61.9398 11.0149 61.9398 11.8469V22.0938C61.9398 22.9071 61.237 23.5685 60.4011 23.5685C59.5652 23.5685 58.8624 22.9071 58.8624 22.0938Z" fill="#F68121"/>
<path d="M20.9053 3.60107C21.7796 3.60107 22.4884 2.89571 22.4884 2.0256C22.4884 1.1555 21.7796 0.450134 20.9053 0.450134C20.031 0.450134 19.3223 1.1555 19.3223 2.0256C19.3223 2.89571 20.031 3.60107 20.9053 3.60107Z" fill="#F68121"/>
<path d="M65.2237 23.4075C66.098 23.4075 66.8067 22.7021 66.8067 21.832C66.8067 20.9619 66.098 20.2565 65.2237 20.2565C64.3493 20.2565 63.6406 20.9619 63.6406 21.832C63.6406 22.7021 64.3493 23.4075 65.2237 23.4075Z" fill="#F68121"/>
<path d="M29.3952 1.6C29.3952 0.716347 28.6774 0 27.7918 0C26.9063 0 26.1885 0.716347 26.1885 1.6V11.7333C26.1885 12.617 26.9063 13.3333 27.7918 13.3333C28.6774 13.3333 29.3952 12.617 29.3952 11.7333V1.6Z" fill="#F68121"/>
<path d="M29.3952 14.9877C29.6469 14.8048 29.9243 14.6512 30.2151 14.5387C30.662 14.3603 31.1393 14.2702 31.6207 14.2736C32.5704 14.2736 33.5201 14.5195 34.2037 15.1435C34.7926 15.6917 35.1914 16.5424 35.1914 17.8091V21.8741C35.1914 22.6869 34.4698 23.3488 33.6532 23.3488C32.7981 23.3488 32.1145 22.6875 32.1145 21.8741V18.4709C32.1145 18.0363 32.0953 17.488 31.8104 17.1285C31.6394 16.9205 31.3545 16.7696 30.9371 16.7696C30.2909 16.7696 29.8735 17.0528 29.6261 17.4688C29.5257 17.6366 29.4481 17.8171 29.3952 18.0053V21.8667C29.3962 22.291 29.2282 22.6983 28.9282 22.9991C28.6283 23.2999 28.2208 23.4694 27.7956 23.4704C27.3704 23.4714 26.9622 23.3037 26.6607 23.0044C26.3593 22.7051 26.1895 22.2985 26.1885 21.8741V11.6267C26.1885 10.7947 26.8913 10.1333 27.7272 10.1333C27.7487 10.1329 27.7703 10.1329 27.7918 10.1333C28.217 10.1333 28.6249 10.3019 28.9256 10.602C29.2263 10.902 29.3952 11.309 29.3952 11.7333V14.9877Z" fill="#F68121"/>
</svg>
